<mxfile host="drawio-plugin" modified="2021-05-19T06:29:49.888Z" agent="5.0 (Macintosh; Intel Mac OS X 10_16_0) AppleWebKit/537.36 (KHTML, like Gecko) Chrome/84.0.4147.105 Safari/537.36" version="14.6.6" etag="kTSD-M4sbNb0bsjY1JGA" type="embed"><diagram id="fh903vdHstOv7FZ_hmhA" name="Page-1"><mxGraphModel dx="865" dy="461" grid="1" gridSize="10" guides="1" tooltips="1" connect="1" arrows="1" fold="1" page="1" pageScale="1" pageWidth="850" pageHeight="1100" math="0" shadow="0"><root><mxCell id="0"/><mxCell id="1" parent="0"/><mxCell id="2" value="" style="rounded=0;whiteSpace=wrap;html=1;" vertex="1" parent="1"><mxGeometry x="80" y="830" width="720" height="150" as="geometry"/></mxCell><mxCell id="4" value="" style="rounded=1;whiteSpace=wrap;html=1;" vertex="1" parent="1"><mxGeometry x="80" y="330" width="550" height="470" as="geometry"/></mxCell><mxCell id="5" value="" style="rounded=0;whiteSpace=wrap;html=1;" vertex="1" parent="1"><mxGeometry x="680" y="330" width="100" height="470" as="geometry"/></mxCell><mxCell id="6" value="Time Line&amp;nbsp;" style="text;html=1;strokeColor=none;fillColor=none;align=center;verticalAlign=middle;whiteSpace=wrap;rounded=0;" vertex="1" parent="1"><mxGeometry x="80" y="830" width="70" height="30" as="geometry"/></mxCell><mxCell id="7" value="event cart board" style="text;html=1;strokeColor=none;fillColor=none;align=center;verticalAlign=middle;whiteSpace=wrap;rounded=0;" vertex="1" parent="1"><mxGeometry x="100" y="370" width="100" height="20" as="geometry"/></mxCell><mxCell id="8" value="Guys, i just suddently have some idea about prototype so i leave it right here. and we can make it more and nicely later :D" style="text;html=1;strokeColor=none;fillColor=none;align=center;verticalAlign=middle;whiteSpace=wrap;rounded=0;" vertex="1" parent="1"><mxGeometry x="100" y="30" width="570" height="50" as="geometry"/></mxCell><mxCell id="9" value="" style="endArrow=none;dashed=1;html=1;entryX=1;entryY=0.25;entryDx=0;entryDy=0;startArrow=none;" edge="1" parent="1" source="37" target="2"><mxGeometry width="50" height="50" relative="1" as="geometry"><mxPoint x="123" y="867" as="sourcePoint"/><mxPoint x="510" y="950" as="targetPoint"/></mxGeometry></mxCell><mxCell id="10" value="" style="endArrow=none;dashed=1;html=1;dashPattern=1 3;strokeWidth=2;exitX=0;exitY=0.5;exitDx=0;exitDy=0;entryX=1;entryY=0.5;entryDx=0;entryDy=0;" edge="1" parent="1" source="2" target="2"><mxGeometry width="50" height="50" relative="1" as="geometry"><mxPoint x="460" y="1000" as="sourcePoint"/><mxPoint x="510" y="950" as="targetPoint"/></mxGeometry></mxCell><mxCell id="11" value="" style="endArrow=none;dashed=1;html=1;dashPattern=1 3;strokeWidth=2;exitX=0;exitY=0.75;exitDx=0;exitDy=0;entryX=1;entryY=0.75;entryDx=0;entryDy=0;" edge="1" parent="1" source="2" target="2"><mxGeometry width="50" height="50" relative="1" as="geometry"><mxPoint x="460" y="1000" as="sourcePoint"/><mxPoint x="510" y="950" as="targetPoint"/></mxGeometry></mxCell><mxCell id="12" value="" style="shape=process;whiteSpace=wrap;html=1;backgroundOutline=1;" vertex="1" parent="1"><mxGeometry x="110" y="420" width="70" height="60" as="geometry"/></mxCell><mxCell id="13" value="" style="shape=process;whiteSpace=wrap;html=1;backgroundOutline=1;" vertex="1" parent="1"><mxGeometry x="390" y="420" width="80" height="60" as="geometry"/></mxCell><mxCell id="14" value="the collection of event card&lt;br&gt;" style="text;html=1;strokeColor=none;fillColor=none;align=center;verticalAlign=middle;whiteSpace=wrap;rounded=0;" vertex="1" parent="1"><mxGeometry x="690" y="340" width="80" height="30" as="geometry"/></mxCell><mxCell id="15" value="" style="shape=process;whiteSpace=wrap;html=1;backgroundOutline=1;" vertex="1" parent="1"><mxGeometry x="385" y="590" width="80" height="60" as="geometry"/></mxCell><mxCell id="16" value="" style="shape=process;whiteSpace=wrap;html=1;backgroundOutline=1;" vertex="1" parent="1"><mxGeometry x="240" y="535" width="80" height="60" as="geometry"/></mxCell><mxCell id="17" value="" style="shape=process;whiteSpace=wrap;html=1;backgroundOutline=1;" vertex="1" parent="1"><mxGeometry x="240" y="420" width="80" height="60" as="geometry"/></mxCell><mxCell id="18" value="" style="shape=process;whiteSpace=wrap;html=1;backgroundOutline=1;" vertex="1" parent="1"><mxGeometry x="690" y="470" width="80" height="60" as="geometry"/></mxCell><mxCell id="19" value="" style="shape=process;whiteSpace=wrap;html=1;backgroundOutline=1;" vertex="1" parent="1"><mxGeometry x="690" y="560" width="80" height="60" as="geometry"/></mxCell><mxCell id="20" value="" style="shape=process;whiteSpace=wrap;html=1;backgroundOutline=1;" vertex="1" parent="1"><mxGeometry x="690" y="640" width="80" height="60" as="geometry"/></mxCell><mxCell id="21" value="" style="shape=process;whiteSpace=wrap;html=1;backgroundOutline=1;" vertex="1" parent="1"><mxGeometry x="690" y="720" width="80" height="60" as="geometry"/></mxCell><mxCell id="22" value="" style="endArrow=classic;html=1;exitX=1;exitY=0.5;exitDx=0;exitDy=0;entryX=0;entryY=0.5;entryDx=0;entryDy=0;" edge="1" parent="1" source="12" target="17"><mxGeometry width="50" height="50" relative="1" as="geometry"><mxPoint x="460" y="580" as="sourcePoint"/><mxPoint x="510" y="530" as="targetPoint"/></mxGeometry></mxCell><mxCell id="23" value="" style="endArrow=classic;html=1;exitX=0.5;exitY=1;exitDx=0;exitDy=0;entryX=0.5;entryY=0;entryDx=0;entryDy=0;" edge="1" parent="1" source="17" target="16"><mxGeometry width="50" height="50" relative="1" as="geometry"><mxPoint x="190" y="460" as="sourcePoint"/><mxPoint x="250" y="460" as="targetPoint"/></mxGeometry></mxCell><mxCell id="24" value="" style="endArrow=classic;html=1;exitX=1;exitY=0.5;exitDx=0;exitDy=0;" edge="1" parent="1" source="16" target="15"><mxGeometry width="50" height="50" relative="1" as="geometry"><mxPoint x="200" y="470" as="sourcePoint"/><mxPoint x="260" y="470" as="targetPoint"/></mxGeometry></mxCell><mxCell id="25" value="" style="endArrow=classic;html=1;exitX=1;exitY=0.5;exitDx=0;exitDy=0;entryX=0;entryY=0.5;entryDx=0;entryDy=0;" edge="1" parent="1" source="17" target="13"><mxGeometry width="50" height="50" relative="1" as="geometry"><mxPoint x="210" y="480" as="sourcePoint"/><mxPoint x="270" y="480" as="targetPoint"/></mxGeometry></mxCell><mxCell id="26" value="" style="shape=process;whiteSpace=wrap;html=1;backgroundOutline=1;" vertex="1" parent="1"><mxGeometry x="510" y="500" width="80" height="60" as="geometry"/></mxCell><mxCell id="27" value="" style="endArrow=classic;html=1;exitX=0.75;exitY=0;exitDx=0;exitDy=0;" edge="1" parent="1" source="15"><mxGeometry width="50" height="50" relative="1" as="geometry"><mxPoint x="460" y="580" as="sourcePoint"/><mxPoint x="510" y="530" as="targetPoint"/></mxGeometry></mxCell><mxCell id="28" value="" style="endArrow=classic;startArrow=classic;html=1;exitX=0.5;exitY=1;exitDx=0;exitDy=0;entryX=0.5;entryY=0;entryDx=0;entryDy=0;" edge="1" parent="1" source="15" target="29"><mxGeometry width="50" height="50" relative="1" as="geometry"><mxPoint x="460" y="580" as="sourcePoint"/><mxPoint x="650" y="660" as="targetPoint"/><Array as="points"/></mxGeometry></mxCell><mxCell id="29" value="" style="shape=process;whiteSpace=wrap;html=1;backgroundOutline=1;" vertex="1" parent="1"><mxGeometry x="385" y="700" width="80" height="60" as="geometry"/></mxCell><mxCell id="30" value="" style="shape=process;whiteSpace=wrap;html=1;backgroundOutline=1;" vertex="1" parent="1"><mxGeometry x="110" y="700" width="70" height="60" as="geometry"/></mxCell><mxCell id="31" value="" style="endArrow=classic;html=1;exitX=1;exitY=0.5;exitDx=0;exitDy=0;entryX=0;entryY=0.5;entryDx=0;entryDy=0;" edge="1" parent="1" source="30" target="29"><mxGeometry width="50" height="50" relative="1" as="geometry"><mxPoint x="330" y="575" as="sourcePoint"/><mxPoint x="395" y="609.047619047619" as="targetPoint"/><Array as="points"><mxPoint x="330" y="730"/></Array></mxGeometry></mxCell><mxCell id="32" value="" style="shape=process;whiteSpace=wrap;html=1;backgroundOutline=1;" vertex="1" parent="1"><mxGeometry x="690" y="390" width="80" height="60" as="geometry"/></mxCell><mxCell id="34" value="&lt;font style=&quot;line-height: 50%&quot;&gt;&lt;span style=&quot;font-size: 5px&quot;&gt;event name :&lt;/span&gt;&lt;br&gt;&lt;span style=&quot;font-size: 5px&quot;&gt;chapter:&lt;/span&gt;&lt;br&gt;&lt;span style=&quot;font-size: 5px&quot;&gt;date&lt;/span&gt;&lt;br&gt;&lt;span style=&quot;font-size: 5px&quot;&gt;detail:&lt;br&gt;&lt;/span&gt;&lt;br&gt;&lt;div&gt;&lt;span style=&quot;font-size: 5px&quot;&gt;&lt;br&gt;&lt;/span&gt;&lt;/div&gt;&lt;/font&gt;" style="text;html=1;strokeColor=none;fillColor=none;align=center;verticalAlign=middle;whiteSpace=wrap;rounded=0;labelPosition=center;verticalLabelPosition=middle;spacing=0;" vertex="1" parent="1"><mxGeometry x="120" y="420" width="50" height="60" as="geometry"/></mxCell><mxCell id="35" value="event 1" style="shape=step;perimeter=stepPerimeter;whiteSpace=wrap;html=1;fixedSize=1;align=center;" vertex="1" parent="1"><mxGeometry x="120" y="850" width="100" height="40" as="geometry"/></mxCell><mxCell id="36" value="" style="endArrow=none;dashed=1;html=1;entryX=0;entryY=0.5;entryDx=0;entryDy=0;" edge="1" parent="1" target="35"><mxGeometry width="50" height="50" relative="1" as="geometry"><mxPoint x="80" y="870" as="sourcePoint"/><mxPoint x="800" y="867.4999999999999" as="targetPoint"/></mxGeometry></mxCell><mxCell id="38" value="event 2" style="shape=step;perimeter=stepPerimeter;whiteSpace=wrap;html=1;fixedSize=1;align=center;" vertex="1" parent="1"><mxGeometry x="240" y="885" width="100" height="40" as="geometry"/></mxCell><mxCell id="37" value="event 3" style="shape=step;perimeter=stepPerimeter;whiteSpace=wrap;html=1;fixedSize=1;align=center;" vertex="1" parent="1"><mxGeometry x="390" y="850" width="100" height="40" as="geometry"/></mxCell><mxCell id="39" value="" style="endArrow=none;dashed=1;html=1;startArrow=none;" edge="1" parent="1" source="35" target="37"><mxGeometry width="50" height="50" relative="1" as="geometry"><mxPoint x="219.802371541502" y="869.8023715415021" as="sourcePoint"/><mxPoint x="800" y="867.4999999999999" as="targetPoint"/></mxGeometry></mxCell><mxCell id="40" value="menu bar&amp;nbsp;" style="rounded=0;whiteSpace=wrap;html=1;align=left;" vertex="1" parent="1"><mxGeometry x="80" y="280" width="700" height="40" as="geometry"/></mxCell></root></mxGraphModel></diagram></mxfile>